<?xml version="1.0" standalone="no"?>
<!DOCTYPE svg PUBLIC "-//W3C//DTD SVG 20010904//EN"
 "http://www.w3.org/TR/2001/REC-SVG-20010904/DTD/svg10.dtd">
<svg version="1.0" xmlns="http://www.w3.org/2000/svg"
 width="3000.000000pt" height="1670.000000pt" viewBox="0 0 3000.000000 1670.000000"
 preserveAspectRatio="xMidYMid meet">

<g transform="translate(0.000000,1670.000000) scale(0.100000,-0.100000)"
fill="#fff" stroke="none">
<path d="M11830 10685 l0 -2875 38 0 c20 0 60 6 87 14 177 47 314 173 377 346
l23 65 3 1093 2 1092 3530 0 3530 0 0 265 0 265 -3530 0 -3530 0 0 1305 0
1305 -265 0 -265 0 0 -2875z"/>
<path d="M10300 10685 l0 -2435 38 0 c21 0 64 7 97 15 167 44 302 169 368 343
l22 57 3 2228 2 2227 -265 0 -265 0 0 -2435z"/>
<path d="M8770 10682 l0 -778 63 7 c130 16 262 88 343 187 51 62 67 90 97 171
21 54 22 74 25 624 l3 567 -266 0 -265 0 0 -778z"/>
<path d="M17627 7763 c-4 -3 -7 -591 -7 -1305 l0 -1298 -3527 -2 -3528 -3 0
-265 0 -265 3525 -3 3525 -2 3 -1300 2 -1300 48 0 c194 0 406 173 466 379 14
49 16 318 16 2713 l0 2658 -258 0 c-142 0 -262 -3 -265 -7z"/>
<path d="M19157 7323 c-11 -11 -8 -4861 3 -4868 20 -13 149 19 225 55 131 62
227 173 278 320 l22 65 3 2195 c1 1207 0 2205 -3 2218 l-5 22 -259 0 c-142 0
-261 -3 -264 -7z"/>
<path d="M20687 5663 c-10 -9 -9 -1541 1 -1547 5 -3 40 -1 78 4 150 21 310
133 381 266 64 121 63 112 63 726 l0 558 -258 0 c-142 0 -262 -3 -265 -7z"/>
</g>
</svg>
